<svg xmlns="http://www.w3.org/2000/svg" data-name="Layer 1" width="300" height="300" viewBox="0 0 300 400" xmlns:xlink="http://www.w3.org/1999/xlink"><circle cx="175.8966" cy="232.17014" r="150.2725" fill="#fff"/><path d="M488.445,491.38065c-83.6875,0-151.77246-68.085-151.77246-151.77246s68.085-151.77246,151.77246-151.77246,151.77246,68.085,151.77246,151.77246S572.13248,491.38065,488.445,491.38065Zm0-300.54492c-82.03321,0-148.77246,66.73926-148.77246,148.77246S406.41177,488.38065,488.445,488.38065,637.21744,421.6414,637.21744,339.60819,570.47818,190.83573,488.445,190.83573Z" transform="translate(-312.54831 -107.43826)" fill="#6c63ff"/><path d="M467.94463,417.81825a16.71091,16.71091,0,0,1-13.37125-6.68766L413.57674,356.4675A16.71536,16.71536,0,1,1,440.322,336.40994l26.8214,35.75915,68.88731-103.3296a16.71606,16.71606,0,0,1,27.8172,18.5448L481.85459,410.37421a16.72281,16.72281,0,0,1-13.44471,7.4386C468.2548,417.81553,468.09971,417.81825,467.94463,417.81825Z" transform="translate(-312.54831 -107.43826)" fill="#6c63ff"/></svg>